# xmcd
#
# Track frame offsets:
#	150
#	12550
#	28496
#	34670
#	41839
#	50415
#	54777
#	68899
#	78952
#	95100
#	108685
#	112790
#	124982
#	135858
#	140770
#	155190
#	163000
#	172984
#	178837
#	189064
#	200148
#	206028
#	218742
#	232188
#	246575
#	257827
#	264753
#	277962
#	293483
#	298730
# Disc length: 4132 seconds
# Revision: 1
# Processed by: cddbd v1.5.1PL0 Copyright (c) Steve Scherf et al.
#
# Submitted via: libkcddb 0.21
#
DISCID=cb10221e
DTITLE=Bruant par Ogeret - Aristide Bruant
DYEAR=1900
DGENRE=Chanson
TTITLE0=a la bastoche
TTITLE1=a la Villette
TTITLE2=foies blancs (monologue)
TTITLE3=ah! les salauds!
TTITLE4=a montrouge
TTITLE5=sonneur (monologue)
TTITLE6=a la roquette
TTITLE7=chant d'apaches
TTITLE8=a mazas
TTITLE9=a la glacière
TTITLE10=m'sieur l'bon (monologue)
TTITLE11=sur le tas
TTITLE12=p'tit gris
TTITLE13=lézard (monologue)
TTITLE14=marche des dos
TTITLE15=a pantruche
TTITLE16=a monpernasse
TTITLE17=bavarde (monologue
TTITLE18=chanson des michetons
TTITLE19=a grenelle
TTITLE20=conasse (monologue)
TTITLE21=a la bastille
TTITLE22=nini peau d'chien
TTITLE23=a saint lazare
TTITLE24=marcheuses
TTITLE25=ma rosse de gosse (monologue)
TTITLE26=ronde des marmites
TTITLE27=a batignolles
TTITLE28=coquette (monologue)
TTITLE29=a la goutte d'or
EXTD=
EXTT0=
EXTT1=
EXTT2=
EXTT3=
EXTT4=
EXTT5=
EXTT6=
EXTT7=
EXTT8=
EXTT9=
EXTT10=
EXTT11=
EXTT12=
EXTT13=
EXTT14=
EXTT15=
EXTT16=
EXTT17=
EXTT18=
EXTT19=
EXTT20=
EXTT21=
EXTT22=
EXTT23=
EXTT24=
EXTT25=
EXTT26=
EXTT27=
EXTT28=
EXTT29=
PLAYORDER=
